<svg id="Layer_1" data-name="Layer 1" xmlns="http://www.w3.org/2000/svg" viewBox="0 0 778.59 358.25"><defs><style>.cls-1,.cls-7{font-size:12px;}.cls-1,.cls-14,.cls-7{fill:#231f20;}.cls-1{font-family:HelveticaNeue-CondensedBold, Helvetica Neue;font-weight:700;}.cls-2{letter-spacing:1.26em;}.cls-3{letter-spacing:1.34em;}.cls-4{letter-spacing:2.76em;}.cls-5{letter-spacing:-0.04em;}.cls-6{letter-spacing:-0.02em;}.cls-7{font-family:HelveticaNeue, Helvetica Neue;}.cls-8{letter-spacing:-0.09em;}.cls-9{letter-spacing:-0.07em;}.cls-10{letter-spacing:0.02em;}.cls-11{letter-spacing:-0.11em;}.cls-12{letter-spacing:0em;}.cls-13{letter-spacing:-0.07em;}.cls-14{stroke:#231f20;stroke-miterlimit:10;}</style></defs><text class="cls-1" transform="translate(1.93 10.28)">Light Roast<tspan class="cls-2" x="53.95" y="0">	</tspan><tspan x="0" y="28.8">Medium Roast</tspan><tspan x="0" y="57.6">Dark Roast </tspan><tspan x="0" y="86.4">Extra Dark </tspan><tspan class="cls-3" x="53.05" y="86.4">	</tspan><tspan class="cls-4" x="72" y="86.4">	</tspan><tspan x="108" y="86.4"> </tspan></text><text class="cls-1" transform="translate(470.15 23.81)">Americano<tspan x="0" y="28.8">Cortado</tspan><tspan x="0" y="86.4">Red Eye</tspan><tspan x="0" y="129.6">Mocha</tspan><tspan x="0" y="172.8">Macchiato</tspan><tspan x="0" y="216">Flat</tspan><tspan class="cls-5" x="17.76" y="216"> </tspan><tspan x="20.2" y="216">White</tspan><tspan x="0" y="259.2">Irish Coffee </tspan><tspan x="0" y="302.4">Iceed Espresso</tspan></text><text class="cls-1" transform="translate(1.93 151.27)">Drip<tspan class="cls-6" x="0" y="57.6">P</tspan><tspan x="6.01" y="57.6">our Over</tspan><tspan x="0" y="100.8">Espresso </tspan><tspan x="0" y="144">Cold Brew </tspan></text><text class="cls-7" transform="translate(86.89 10.54)">High levels of acidity and ca<tspan class="cls-6" x="150.45" y="0">f</tspan><tspan x="153.79" y="0">feine</tspan><tspan x="0" y="28.8">Balanced flavor</tspan><tspan x="0" y="57.6">Full boddied and heavy with low ca</tspan><tspan class="cls-6" x="188.9" y="57.6">f</tspan><tspan x="192.23" y="57.6">feine and fainly spicy flavor </tspan><tspan x="0" y="86.4">Bitte</tspan><tspan class="cls-8" x="24.89" y="86.4">r</tspan><tspan x="27.78" y="86.4">, snok</tspan><tspan class="cls-9" x="60.24" y="86.4">y</tspan><tspan x="65.35" y="86.4">, and burt with the lowes ca</tspan><tspan class="cls-6" x="213.58" y="86.4">f</tspan><tspan x="216.92" y="86.4">feine of all</tspan></text><text class="cls-7" transform="translate(555.88 24.07)">An esp<tspan class="cls-6" x="37.34" y="0">r</tspan><tspan x="41.12" y="0">esso shot diluted with hot wate</tspan><tspan class="cls-8" x="208.24" y="0">r</tspan><tspan x="211.14" y="0">.</tspan><tspan x="0" y="28.8">Equal parts esp</tspan><tspan class="cls-6" x="83.79" y="28.8">r</tspan><tspan x="87.57" y="28.8">esso and steamed milk. </tspan><tspan x="0" y="43.2">The milk balances the sharp bitte</tspan><tspan class="cls-10" x="177.61" y="43.2">r</tspan><tspan x="181.82" y="43.2">ness </tspan><tspan x="0" y="57.6">of the esp</tspan><tspan class="cls-6" x="53.57" y="57.6">r</tspan><tspan x="57.35" y="57.6">esso.</tspan><tspan x="0" y="86.4">A full cup of co</tspan><tspan class="cls-6" x="80.67" y="86.4">f</tspan><tspan x="84.01" y="86.4">fee with an esp</tspan><tspan class="cls-6" x="165.34" y="86.4">r</tspan><tspan x="169.12" y="86.4">esso </tspan><tspan x="0" y="100.8">shot stir</tspan><tspan class="cls-6" x="43.12" y="100.8">r</tspan><tspan x="46.9" y="100.8">ed in.</tspan><tspan x="0" y="129.6">Essentially a cappuccino, with a cocoa </tspan><tspan x="0" y="144">kick and c</tspan><tspan class="cls-6" x="54.91" y="144">r</tspan><tspan x="58.69" y="144">eaminess f</tspan><tspan class="cls-6" x="116.48" y="144">r</tspan><tspan x="120.26" y="144">om steamed milk</tspan><tspan x="0" y="172.8">Combine 3 parts foam with one </tspan><tspan x="0" y="187.2">esp</tspan><tspan class="cls-6" x="19.56" y="187.2">r</tspan><tspan x="23.34" y="187.2">esso</tspan><tspan x="0" y="216">A double shot of esp</tspan><tspan class="cls-6" x="111.36" y="216">r</tspan><tspan x="115.14" y="216">esso with steamed </tspan><tspan x="0" y="230.4">milk</tspan><tspan x="0" y="259.2">A combination of co</tspan><tspan class="cls-6" x="108.02" y="259.2">f</tspan><tspan x="111.36" y="259.2">fee, suga</tspan><tspan class="cls-8" x="160.47" y="259.2">r</tspan><tspan x="163.36" y="259.2">, c</tspan><tspan class="cls-6" x="176.48" y="259.2">r</tspan><tspan x="180.26" y="259.2">eam, </tspan><tspan x="0" y="273.6">and whiskey</tspan><tspan x="0" y="302.4">Dumping shots of esp</tspan><tspan class="cls-6" x="118.04" y="302.4">r</tspan><tspan x="121.82" y="302.4">esso over ice. </tspan><tspan class="cls-11" x="199.38" y="302.4">Y</tspan><tspan x="205.82" y="302.4">ou </tspan><tspan x="0" y="316.8">can flavor or sweeten it any way you like</tspan></text><text class="cls-7" transform="translate(86.89 151.63)">The most common way to p<tspan class="cls-6" x="150.27" y="0">r</tspan><tspan x="154.05" y="0">oduce traditional black co</tspan><tspan class="cls-6" x="292.96" y="0">f</tspan><tspan x="296.3" y="0">fee, </tspan><tspan x="0" y="14.4">medium g</tspan><tspan class="cls-6" x="53.59" y="14.4">r</tspan><tspan x="57.37" y="14.4">ounds a</tspan><tspan class="cls-6" x="100.5" y="14.4">r</tspan><tspan x="104.28" y="14.4">e added to a b</tspan><tspan class="cls-6" x="182.53" y="14.4">r</tspan><tspan x="186.31" y="14.4">ew basket and run th</tspan><tspan class="cls-6" x="299.23" y="14.4">r</tspan><tspan x="303.01" y="14.4">ough </tspan><tspan x="0" y="28.8">an automatic machine.</tspan><tspan x="0" y="57.6">Boiling water is pou</tspan><tspan class="cls-6" x="105.77" y="57.6">r</tspan><tspan x="109.55" y="57.6">ed slowly over fine g</tspan><tspan class="cls-6" x="219.31" y="57.6">r</tspan><tspan x="223.09" y="57.6">ound p</tspan><tspan class="cls-6" x="260.89" y="57.6">r</tspan><tspan x="264.67" y="57.6">oducing a </tspan><tspan x="0" y="72">st</tspan><tspan class="cls-6" x="9.78" y="72">r</tspan><tspan x="13.56" y="72">onger b</tspan><tspan class="cls-6" x="54.9" y="72">r</tspan><tspan x="58.68" y="72">ew</tspan><tspan x="0" y="100.8">P</tspan><tspan class="cls-6" x="7.78" y="100.8">r</tspan><tspan x="11.56" y="100.8">essurized water passes th</tspan><tspan class="cls-6" x="150.87" y="100.8">r</tspan><tspan x="154.65" y="100.8">ough filter containing dark </tspan><tspan class="cls-6" x="297.79" y="100.8">r</tspan><tspan x="301.57" y="100.8">oast </tspan><tspan x="0" y="115.2">p</tspan><tspan class="cls-6" x="7.12" y="115.2">r</tspan><tspan x="10.9" y="115.2">oducing a concentrated shot</tspan><tspan x="0" y="144">Coarsely g</tspan><tspan class="cls-6" x="57.32" y="144">r</tspan><tspan x="61.1" y="144">ound co</tspan><tspan class="cls-6" x="105.12" y="144">f</tspan><tspan x="108.45" y="144">fee steeps in </tspan><tspan class="cls-6" x="180.02" y="144">r</tspan><tspan x="183.8" y="144">oom temperatu</tspan><tspan class="cls-6" x="266.06" y="144">r</tspan><tspan class="cls-12" x="269.84" y="144">e water for </tspan><tspan x="0" y="158.4">an extended period of time, </tspan><tspan class="cls-6" x="151.15" y="158.4">r</tspan><tspan x="154.93" y="158.4">esulting in a low-acidit</tspan><tspan class="cls-13" x="274.92" y="158.4">y</tspan><tspan x="280.04" y="158.4">,</tspan><tspan x="0" y="172.8">high-ca</tspan><tspan class="cls-6" x="40.45" y="172.8">f</tspan><tspan x="43.79" y="172.8">feine b</tspan><tspan class="cls-6" x="80.01" y="172.8">r</tspan><tspan x="83.79" y="172.8">ew that&apos;s excellent enjoyed cold.</tspan></text><line class="cls-14" y1="118.27" x2="427.91" y2="120.27"/><line class="cls-14" x1="448.9" y1="0.75" x2="447.23" y2="355.01"/></svg>